<svg xmlns="http://www.w3.org/2000/svg" xmlns:xlink="http://www.w3.org/1999/xlink" width="360px"
  height="173px" viewBox="0 0 43.16 20.8"
  style="shape-rendering:geometricPrecision; text-rendering:geometricPrecision; image-rendering:optimizeQuality; fill-rule:evenodd; clip-rule:evenodd">
  <style>
    .fil3 {fill:#01C794}
    .fil2 {fill:#01C796}
    .fil1 {fill:#0F7FAF}
    .fil4 {fill:#01C794;fill-rule:nonzero}
    .fil0 {fill:url(#id0)}
  </style>
  <defs>
    <linearGradient id="id0" gradientUnits="userSpaceOnUse" x1="23.23" y1="0.19" x2="19.84"
      y2="14.78">
      <stop offset="0" style="stop-opacity:1; stop-color:#02C396" />
      <stop offset="1" style="stop-opacity:1; stop-color:#0B8AAA" />
    </linearGradient>
  </defs>
  <g id="_2086593635008">
    <path class="fil0"
      d="M15.94 0l11.19 0c1.06,0 1.93,0.87 1.93,1.93l0 11.11c0,1.07 -0.87,1.93 -1.93,1.93l-11.19 0c-1.07,0 -1.94,-0.86 -1.94,-1.93l0 -11.11c0,-1.06 0.87,-1.93 1.94,-1.93zm0.09 0.59l11 0c0.79,0 1.44,0.65 1.44,1.44l0 10.92c0,0.79 -0.65,1.43 -1.44,1.43l-11 0c-0.79,0 -1.43,-0.64 -1.43,-1.43l0 -10.92c0,-0.79 0.64,-1.44 1.43,-1.44z" />
    <g>
      <path class="fil1"
        d="M24.51 8.19l-2.96 4.75 -2.91 -4.7c0.21,-0.13 0.47,-0.17 0.71,-0.12 0.28,0.07 0.57,0.07 0.86,0.03 0.84,0.66 2.04,0.62 2.84,-0.09l1.39 0.1 0.07 0.03z" />
      <path class="fil2"
        d="M21.6 4.56l0 0 0 0.46c0.75,0 1.37,0.61 1.37,1.36l0.45 0c0,-0.48 -0.19,-0.95 -0.53,-1.29 -0.35,-0.34 -0.81,-0.53 -1.29,-0.53zm0 -0.81l0 0 0 0.45c1.2,0 2.18,0.98 2.18,2.19l0 0 0.46 0c0,-1.46 -1.19,-2.64 -2.64,-2.64zm0 -0.78c1.89,0 3.42,1.53 3.42,3.42l0 0 -0.46 0c0,-1.64 -1.32,-2.96 -2.96,-2.96l0 0 0 -0.46z" />
      <path class="fil1"
        d="M25.01 6.57c-0.09,1.9 -1.71,3.37 -3.61,3.27 -1.9,-0.09 -3.36,-1.71 -3.27,-3.6 0.09,-1.77 1.5,-3.19 3.27,-3.27l0 1.23c-1.22,0.09 -2.13,1.15 -2.04,2.37 0.09,1.22 1.15,2.13 2.37,2.04 1.09,-0.08 1.96,-0.95 2.04,-2.04l1.24 0z" />
      <circle class="fil2" cx="21.6" cy="6.32" r="0.68" />
    </g>
    <g>
      <polygon class="fil3"
        points="1.96,20.79 1.96,17.61 0,17.61 0,17.05 4.57,17.05 4.57,17.61 2.67,17.61 2.67,20.79 " />
      <polygon class="fil3"
        points="8.39,20.79 6.46,17.78 4.5,20.79 3.72,20.79 6.2,17.05 6.72,17.05 9.18,20.79 " />
      <path class="fil3"
        d="M10.83 20.79c-0.88,0 -1.32,-0.27 -1.32,-0.8l0 -2.13c0,-0.53 0.44,-0.8 1.32,-0.8l2.93 0 0 0.55 -2.93 0c-0.41,0 -0.62,0.08 -0.62,0.25l0 2.13c0,0.18 0.22,0.26 0.62,0.26l1.66 0c0.42,0 0.63,-0.08 0.63,-0.24l0 -1.25 0.69 0 0 1.23c0,0.53 -0.44,0.8 -1.32,0.8l-1.66 0z" />
      <polygon class="fil4" points="14.24,18.5 16.22,18.5 16.22,19.09 14.24,19.09 " />
      <polygon class="fil3"
        points="21.29,20.79 17.3,17.88 17.3,20.79 16.68,20.79 16.68,17.05 17.3,17.05 21.02,19.83 21.02,17.05 21.64,17.05 21.64,20.79 " />
      <polygon class="fil4" points="22.09,18.5 24.07,18.5 24.07,19.09 22.09,19.09 " />
      <polygon class="fil3"
        points="25.54,20.79 25.54,17.61 23.58,17.61 23.58,17.05 28.15,17.05 28.15,17.61 26.24,17.61 26.24,20.79 " />
      <path class="fil3"
        d="M32.26 17.96c0,-0.22 -0.15,-0.35 -0.47,-0.35l-2.46 0 0 0.97 2.47 0c0.31,0 0.46,-0.11 0.46,-0.35l0 -0.27zm-0.09 2.83l-0.88 -1.67 -1.97 0 0 1.67 -0.71 0 0 -3.74 3.18 0c0.18,0 0.36,0.02 0.54,0.06 0.13,0.04 0.26,0.1 0.36,0.19 0.1,0.07 0.17,0.17 0.21,0.28 0.05,0.12 0.07,0.25 0.08,0.38l0 0.27c0,0.22 -0.08,0.44 -0.23,0.61 -0.19,0.18 -0.44,0.28 -0.71,0.28l0.88 1.68 -0.75 -0.01z" />
      <polygon class="fil3"
        points="37.86,20.79 35.94,17.78 33.98,20.79 33.19,20.79 35.68,17.05 36.19,17.05 38.66,20.79 " />
      <path class="fil3"
        d="M40.15 20.79c-0.18,0.01 -0.37,-0.02 -0.54,-0.06 -0.14,-0.04 -0.26,-0.1 -0.37,-0.19 -0.09,-0.08 -0.16,-0.17 -0.2,-0.28 -0.05,-0.12 -0.07,-0.24 -0.06,-0.37l0 -1.93c-0.01,-0.12 0.02,-0.25 0.06,-0.36 0.04,-0.12 0.11,-0.21 0.2,-0.29 0.11,-0.09 0.23,-0.15 0.37,-0.19 0.17,-0.04 0.36,-0.06 0.54,-0.06l3.01 0 0 0.55 -3.01 0c-0.31,0 -0.47,0.11 -0.47,0.34l0 1.95c0,0.22 0.16,0.34 0.47,0.34l3.01 0 0 0.55 -3.01 0z" />
    </g>
  </g>
</svg>
